<?xml version="1.0" encoding="UTF-8"?>
<svg version="1.1" xmlns="http://www.w3.org/2000/svg" width="256" height="256">
<path d="M0 0 C0.804375 -0.00128906 1.60875 -0.00257812 2.4375 -0.00390625 C3.283125 -0.00003906 4.12875 0.00382812 5 0.0078125 C6.2684375 0.00201172 6.2684375 0.00201172 7.5625 -0.00390625 C8.366875 -0.00261719 9.17125 -0.00132813 10 0 C10.7425 0.00112793 11.485 0.00225586 12.25 0.00341797 C14 0.1328125 14 0.1328125 15 1.1328125 C15.07320163 3.665589 15.09227569 6.16385168 15.0625 8.6953125 C15.041875 11.1496875 15.02125 13.6040625 15 16.1328125 C22.92 16.1328125 30.84 16.1328125 39 16.1328125 C38.9604321 11.24127779 38.9604321 11.24127779 38.90991211 6.34985352 C38.90275087 4.61059533 38.94975298 2.87135946 39 1.1328125 C40.5220959 -0.3892834 41.88210082 0.00321729 44 0 C44.804375 -0.00128906 45.60875 -0.00257812 46.4375 -0.00390625 C47.283125 -0.00003906 48.12875 0.00382812 49 0.0078125 C50.2684375 0.00201172 50.2684375 0.00201172 51.5625 -0.00390625 C52.366875 -0.00261719 53.17125 -0.00132813 54 0 C54.7425 0.00112793 55.485 0.00225586 56.25 0.00341797 C58 0.1328125 58 0.1328125 59 1.1328125 C59.07320163 3.665589 59.09227569 6.16385168 59.0625 8.6953125 C59.041875 11.1496875 59.02125 13.6040625 59 16.1328125 C66.92 16.1328125 74.84 16.1328125 83 16.1328125 C82.9604321 11.24127779 82.9604321 11.24127779 82.90991211 6.34985352 C82.90275087 4.61059533 82.94975298 2.87135946 83 1.1328125 C84.5220959 -0.3892834 85.88210082 0.00321729 88 0 C88.804375 -0.00128906 89.60875 -0.00257812 90.4375 -0.00390625 C91.283125 -0.00003906 92.12875 0.00382812 93 0.0078125 C94.2684375 0.00201172 94.2684375 0.00201172 95.5625 -0.00390625 C96.366875 -0.00261719 97.17125 -0.00132813 98 0 C98.7425 0.00112793 99.485 0.00225586 100.25 0.00341797 C102 0.1328125 102 0.1328125 103 1.1328125 C103.07320163 3.665589 103.09227569 6.16385168 103.0625 8.6953125 C103.041875 11.1496875 103.02125 13.6040625 103 16.1328125 C110.92 16.1328125 118.84 16.1328125 127 16.1328125 C126.9604321 11.24127779 126.9604321 11.24127779 126.90991211 6.34985352 C126.90275087 4.61059533 126.94975298 2.87135946 127 1.1328125 C128.5220959 -0.3892834 129.88210082 0.00321729 132 0 C132.804375 -0.00128906 133.60875 -0.00257812 134.4375 -0.00390625 C135.283125 -0.00003906 136.12875 0.00382812 137 0.0078125 C138.2684375 0.00201172 138.2684375 0.00201172 139.5625 -0.00390625 C140.366875 -0.00261719 141.17125 -0.00132813 142 0 C142.7425 0.00112793 143.485 0.00225586 144.25 0.00341797 C146 0.1328125 146 0.1328125 147 1.1328125 C147.07320163 3.665589 147.09227569 6.16385168 147.0625 8.6953125 C147.041875 11.1496875 147.02125 13.6040625 147 16.1328125 C154.92 16.1328125 162.84 16.1328125 171 16.1328125 C170.9604321 11.24127779 170.9604321 11.24127779 170.90991211 6.34985352 C170.90275087 4.61059533 170.94975298 2.87135946 171 1.1328125 C172.5220959 -0.3892834 173.88210082 0.00321729 176 0 C176.804375 -0.00128906 177.60875 -0.00257812 178.4375 -0.00390625 C179.283125 -0.00003906 180.12875 0.00382812 181 0.0078125 C182.2684375 0.00201172 182.2684375 0.00201172 183.5625 -0.00390625 C184.366875 -0.00261719 185.17125 -0.00132813 186 0 C186.7425 0.00112793 187.485 0.00225586 188.25 0.00341797 C190 0.1328125 190 0.1328125 191 1.1328125 C191.07313567 3.66330652 191.09247527 6.16586087 191.0625 8.6953125 C191.05798828 9.40623047 191.05347656 10.11714844 191.04882812 10.84960938 C191.03700864 12.61071263 191.01907263 14.37177286 191 16.1328125 C191.64549805 16.11186523 192.29099609 16.09091797 192.95605469 16.06933594 C195.88721068 15.98607045 198.81811777 15.93412044 201.75 15.8828125 C202.76578125 15.84929688 203.7815625 15.81578125 204.828125 15.78125 C205.8078125 15.76835938 206.7875 15.75546875 207.796875 15.7421875 C208.69760742 15.72124023 209.59833984 15.70029297 210.52636719 15.67871094 C213.93236895 16.3039738 214.90589418 17.38284159 217 20.1328125 C217.39291485 22.89763432 217.54088867 25.26440168 217.50793457 28.02783203 C217.51417453 28.82880373 217.5204145 29.62977543 217.52684355 30.455019 C217.54281383 33.14218604 217.53015384 35.82845104 217.51757812 38.515625 C217.52299746 40.44074025 217.53011905 42.36585136 217.53881836 44.29095459 C217.55707705 49.52232756 217.54997363 54.75338552 217.53730202 59.9847641 C217.52718756 65.45485799 217.53656337 70.9249246 217.54284668 76.39501953 C217.55012761 85.58175508 217.54052365 94.76836208 217.52148438 103.95507812 C217.49971483 114.58202733 217.50676588 125.20866958 217.52879 135.83561134 C217.54693126 144.95332787 217.54950854 154.0709519 217.53903532 163.18868065 C217.5327934 168.63708911 217.53198399 174.08535321 217.54518127 179.53375244 C217.55672058 184.65560553 217.54874908 189.77706219 217.52560425 194.89887238 C217.5203069 196.78065583 217.52184841 198.66247255 217.53065491 200.54424286 C217.54155365 203.10921274 217.52791631 205.67290495 217.50793457 208.23779297 C217.51685746 208.98603899 217.52578034 209.73428501 217.53497362 210.50520515 C217.48700529 213.67018413 217.16878959 215.843039 215.56609344 218.59450531 C211.61998062 220.96009872 207.95540104 220.68461999 203.43457031 220.64074707 C202.45392231 220.64698703 201.47327431 220.653227 200.4629097 220.65965605 C197.16773891 220.67564641 193.87330164 220.66295784 190.578125 220.65039062 C188.21951871 220.65580904 185.8609158 220.66293011 183.50231934 220.67163086 C177.08918495 220.68990035 170.67630733 220.68278157 164.26316833 220.67011452 C160.25962854 220.66301117 156.2561064 220.66434154 152.25256348 220.66807556 C151.58817363 220.66868849 150.92378378 220.66930143 150.23926091 220.66993293 C148.88960996 220.67121182 147.53995902 220.67250867 146.19030809 220.6738233 C133.53147638 220.68523236 120.87276049 220.67211032 108.21394777 220.65062183 C97.34960509 220.63275051 86.48543335 220.63585453 75.62109375 220.65429688 C63.00789449 220.67569788 50.39479676 220.6841337 37.78158188 220.67184782 C36.43686678 220.67057361 35.09215166 220.66931613 33.74743652 220.66807556 C33.08579286 220.66745846 32.42414919 220.66684136 31.74245572 220.66620556 C27.07749322 220.66275032 22.41263046 220.6687797 17.74768066 220.67799377 C11.47020208 220.68952619 5.19304716 220.68157394 -1.08439636 220.65841675 C-3.39189618 220.65311574 -5.69942311 220.65466706 -8.00691223 220.66346741 C-11.14983596 220.6743512 -14.29171376 220.66074538 -17.43457031 220.64074707 C-18.35401806 220.64966996 -19.27346581 220.65859284 -20.2207756 220.66778612 C-23.96371008 220.62139047 -26.31682486 220.54235847 -29.56609344 218.59450531 C-31.55771216 215.17534703 -31.5538238 212.08592323 -31.50793457 208.23779297 C-31.51417453 207.43682127 -31.5204145 206.63584957 -31.52684355 205.810606 C-31.54281383 203.12343896 -31.53015384 200.43717396 -31.51757812 197.75 C-31.52299746 195.82488475 -31.53011905 193.89977364 -31.53881836 191.97467041 C-31.55707705 186.74329744 -31.54997363 181.51223948 -31.53730202 176.2808609 C-31.52718756 170.81076701 -31.53656337 165.3407004 -31.54284668 159.87060547 C-31.55012761 150.68386992 -31.54052365 141.49726292 -31.52148438 132.31054688 C-31.49971483 121.68359767 -31.50676588 111.05695542 -31.52879 100.43001366 C-31.54693126 91.31229713 -31.54950854 82.1946731 -31.53903532 73.07694435 C-31.5327934 67.62853589 -31.53198399 62.18027179 -31.54518127 56.73187256 C-31.55672058 51.61001947 -31.54874908 46.48856281 -31.52560425 41.36675262 C-31.5203069 39.48496917 -31.52184841 37.60315245 -31.53065491 35.72138214 C-31.54155365 33.15641226 -31.52791631 30.59272005 -31.50793457 28.02783203 C-31.51685746 27.27958601 -31.52578034 26.53133999 -31.53497362 25.76041985 C-31.48258682 22.30390735 -31.24448103 20.45386395 -29.12285614 17.66775513 C-26.47882738 15.75597582 -25.03582153 15.66686316 -21.796875 15.7421875 C-20.8171875 15.75507812 -19.8375 15.76796875 -18.828125 15.78125 C-17.81234375 15.81476562 -16.7965625 15.84828125 -15.75 15.8828125 C-14.71875 15.90085937 -13.6875 15.91890625 -12.625 15.9375 C-10.08238936 15.98458538 -7.54166838 16.050332 -5 16.1328125 C-5.01160156 15.06160156 -5.02320312 13.99039062 -5.03515625 12.88671875 C-5.04453299 11.48958507 -5.05363331 10.09244951 -5.0625 8.6953125 C-5.07087891 7.98826172 -5.07925781 7.28121094 -5.08789062 6.55273438 C-5.09653588 4.74587691 -5.05220011 2.93893647 -5 1.1328125 C-3.4779041 -0.3892834 -2.11789918 0.00321729 0 0 Z " fill="#DEE7F4" transform="translate(35,17.8671875)"/>
<path d="M0 0 C0.84127441 -0.00563965 1.68254883 -0.0112793 2.54931641 -0.01708984 C3.93642822 -0.01101715 3.93642822 -0.01101715 5.3515625 -0.00482178 C6.32399902 -0.00832642 7.29643555 -0.01183105 8.29833984 -0.01544189 C11.5244859 -0.02427073 14.75041407 -0.01840596 17.9765625 -0.01165771 C20.21093793 -0.01300403 22.44531308 -0.01494428 24.6796875 -0.01745605 C29.36721581 -0.02040888 34.05466802 -0.01610455 38.7421875 -0.0067749 C44.76178038 0.00461968 50.78119492 -0.00193894 56.80078125 -0.01391983 C61.41602938 -0.02113413 66.03123499 -0.01885248 70.64648438 -0.01366425 C72.86653667 -0.01232656 75.08659278 -0.0139796 77.30664062 -0.01862335 C80.40505254 -0.0236815 83.50317243 -0.0159883 86.6015625 -0.00482178 C87.52630371 -0.00887024 88.45104492 -0.0129187 89.40380859 -0.01708984 C90.66572021 -0.00863037 90.66572021 -0.00863037 91.953125 0 C92.68611816 0.00075405 93.41911133 0.0015081 94.17431641 0.002285 C95.9765625 0.25396729 95.9765625 0.25396729 97.9765625 2.25396729 C98.17549727 5.28661103 98.24919324 8.22797295 98.23535156 11.26177979 C98.2388562 12.19520203 98.24236084 13.12862427 98.24597168 14.09033203 C98.25479952 17.18661865 98.24893611 20.2826782 98.2421875 23.37896729 C98.24353385 25.52366174 98.24547412 27.66835591 98.24798584 29.81304932 C98.25093853 34.31226501 98.24663478 38.81140141 98.23730469 43.31060791 C98.22591011 49.08806673 98.2324688 54.86533975 98.24444962 60.64279175 C98.25166429 65.07274789 98.24938209 69.50265973 98.24419403 73.93261719 C98.24285645 76.06335471 98.24450903 78.19409622 98.24915314 80.3248291 C98.2542119 83.2987133 98.24651726 86.27229334 98.23535156 89.24615479 C98.23940002 90.13349304 98.24344849 91.0208313 98.24761963 91.93505859 C98.2050901 98.02543969 98.2050901 98.02543969 95.9765625 100.25396729 C94.17431641 100.50564957 94.17431641 100.50564957 91.953125 100.50793457 C91.11185059 100.51357422 90.27057617 100.51921387 89.40380859 100.52502441 C88.47906738 100.52097595 87.55432617 100.51692749 86.6015625 100.51275635 C85.14290771 100.51801331 85.14290771 100.51801331 83.65478516 100.52337646 C80.4286391 100.5322053 77.20271093 100.52634053 73.9765625 100.51959229 C71.74218707 100.5209386 69.50781192 100.52287885 67.2734375 100.52539062 C62.58590919 100.52834345 57.89845698 100.52403912 53.2109375 100.51470947 C47.19134462 100.50331489 41.17193008 100.50987351 35.15234375 100.5218544 C30.53709562 100.5290687 25.92189001 100.52678705 21.30664062 100.52159882 C19.08658833 100.52026113 16.86653222 100.52191417 14.64648438 100.52655792 C11.54807246 100.53161607 8.44995257 100.52392287 5.3515625 100.51275635 C3.96445068 100.51882904 3.96445068 100.51882904 2.54931641 100.52502441 C1.70804199 100.51938477 0.86676758 100.51374512 0 100.50793457 C-1.09948975 100.50680349 -1.09948975 100.50680349 -2.22119141 100.50564957 C-4.0234375 100.25396729 -4.0234375 100.25396729 -6.0234375 98.25396729 C-6.22237227 95.22132354 -6.29606824 92.27996162 -6.28222656 89.24615479 C-6.2857312 88.31273254 -6.28923584 87.3793103 -6.29284668 86.41760254 C-6.30167452 83.32131592 -6.29581111 80.22525637 -6.2890625 77.12896729 C-6.29040885 74.98427283 -6.29234912 72.83957866 -6.29486084 70.69488525 C-6.29781353 66.19566956 -6.29350978 61.69653316 -6.28417969 57.19732666 C-6.27278511 51.41986784 -6.2793438 45.64259482 -6.29132462 39.86514282 C-6.29853929 35.43518668 -6.29625709 31.00527484 -6.29106903 26.57531738 C-6.28973145 24.44457986 -6.29138403 22.31383835 -6.29602814 20.18310547 C-6.3010869 17.20922127 -6.29339226 14.23564123 -6.28222656 11.26177979 C-6.28829926 9.9307724 -6.28829926 9.9307724 -6.29449463 8.57287598 C-6.25478938 2.88694219 -6.14426475 0.00632078 0 0 Z " fill="#CBD7E5" transform="translate(30.0234375,85.74603271484375)"/>
<path d="M0 0 C0.804375 -0.00128906 1.60875 -0.00257812 2.4375 -0.00390625 C3.283125 -0.00003906 4.12875 0.00382812 5 0.0078125 C6.2684375 0.00201172 6.2684375 0.00201172 7.5625 -0.00390625 C8.366875 -0.00261719 9.17125 -0.00132813 10 0 C10.7425 0.00112793 11.485 0.00225586 12.25 0.00341797 C14 0.1328125 14 0.1328125 15 1.1328125 C15.07320163 3.665589 15.09227569 6.16385168 15.0625 8.6953125 C15.041875 11.1496875 15.02125 13.6040625 15 16.1328125 C22.92 16.1328125 30.84 16.1328125 39 16.1328125 C38.9604321 11.24127779 38.9604321 11.24127779 38.90991211 6.34985352 C38.90275087 4.61059533 38.94975298 2.87135946 39 1.1328125 C40.5220959 -0.3892834 41.88210082 0.00321729 44 0 C44.804375 -0.00128906 45.60875 -0.00257812 46.4375 -0.00390625 C47.283125 -0.00003906 48.12875 0.00382812 49 0.0078125 C50.2684375 0.00201172 50.2684375 0.00201172 51.5625 -0.00390625 C52.366875 -0.00261719 53.17125 -0.00132813 54 0 C54.7425 0.00112793 55.485 0.00225586 56.25 0.00341797 C58 0.1328125 58 0.1328125 59 1.1328125 C59.07320163 3.665589 59.09227569 6.16385168 59.0625 8.6953125 C59.041875 11.1496875 59.02125 13.6040625 59 16.1328125 C66.92 16.1328125 74.84 16.1328125 83 16.1328125 C82.9604321 11.24127779 82.9604321 11.24127779 82.90991211 6.34985352 C82.90275087 4.61059533 82.94975298 2.87135946 83 1.1328125 C84.5220959 -0.3892834 85.88210082 0.00321729 88 0 C88.804375 -0.00128906 89.60875 -0.00257812 90.4375 -0.00390625 C91.283125 -0.00003906 92.12875 0.00382812 93 0.0078125 C94.2684375 0.00201172 94.2684375 0.00201172 95.5625 -0.00390625 C96.366875 -0.00261719 97.17125 -0.00132813 98 0 C98.7425 0.00112793 99.485 0.00225586 100.25 0.00341797 C102 0.1328125 102 0.1328125 103 1.1328125 C103.07320163 3.665589 103.09227569 6.16385168 103.0625 8.6953125 C103.041875 11.1496875 103.02125 13.6040625 103 16.1328125 C110.92 16.1328125 118.84 16.1328125 127 16.1328125 C126.9604321 11.24127779 126.9604321 11.24127779 126.90991211 6.34985352 C126.90275087 4.61059533 126.94975298 2.87135946 127 1.1328125 C128.5220959 -0.3892834 129.88210082 0.00321729 132 0 C132.804375 -0.00128906 133.60875 -0.00257812 134.4375 -0.00390625 C135.283125 -0.00003906 136.12875 0.00382812 137 0.0078125 C138.2684375 0.00201172 138.2684375 0.00201172 139.5625 -0.00390625 C140.366875 -0.00261719 141.17125 -0.00132813 142 0 C142.7425 0.00112793 143.485 0.00225586 144.25 0.00341797 C146 0.1328125 146 0.1328125 147 1.1328125 C147.07320163 3.665589 147.09227569 6.16385168 147.0625 8.6953125 C147.041875 11.1496875 147.02125 13.6040625 147 16.1328125 C154.92 16.1328125 162.84 16.1328125 171 16.1328125 C170.9604321 11.24127779 170.9604321 11.24127779 170.90991211 6.34985352 C170.90275087 4.61059533 170.94975298 2.87135946 171 1.1328125 C172.5220959 -0.3892834 173.88210082 0.00321729 176 0 C176.804375 -0.00128906 177.60875 -0.00257812 178.4375 -0.00390625 C179.283125 -0.00003906 180.12875 0.00382812 181 0.0078125 C182.2684375 0.00201172 182.2684375 0.00201172 183.5625 -0.00390625 C184.366875 -0.00261719 185.17125 -0.00132813 186 0 C186.7425 0.00112793 187.485 0.00225586 188.25 0.00341797 C190 0.1328125 190 0.1328125 191 1.1328125 C191.07313567 3.66330652 191.09247527 6.16586087 191.0625 8.6953125 C191.05798828 9.40623047 191.05347656 10.11714844 191.04882812 10.84960938 C191.03700864 12.61071263 191.01907263 14.37177286 191 16.1328125 C191.64549805 16.11186523 192.29099609 16.09091797 192.95605469 16.06933594 C195.88721068 15.98607045 198.81811777 15.93412044 201.75 15.8828125 C202.76578125 15.84929688 203.7815625 15.81578125 204.828125 15.78125 C205.8078125 15.76835938 206.7875 15.75546875 207.796875 15.7421875 C208.69760742 15.72124023 209.59833984 15.70029297 210.52636719 15.67871094 C213 16.1328125 213 16.1328125 217 20.1328125 C217 29.3728125 217 38.6128125 217 48.1328125 C135.16 48.1328125 53.32 48.1328125 -31 48.1328125 C-31 20.1328125 -31 20.1328125 -27 16.1328125 C-24.52636719 15.67871094 -24.52636719 15.67871094 -21.796875 15.7421875 C-20.8171875 15.75507812 -19.8375 15.76796875 -18.828125 15.78125 C-17.81234375 15.81476562 -16.7965625 15.84828125 -15.75 15.8828125 C-14.71875 15.90085937 -13.6875 15.91890625 -12.625 15.9375 C-10.08238936 15.98458538 -7.54166838 16.050332 -5 16.1328125 C-5.01160156 15.06160156 -5.02320312 13.99039062 -5.03515625 12.88671875 C-5.04453299 11.48958507 -5.05363331 10.09244951 -5.0625 8.6953125 C-5.07087891 7.98826172 -5.07925781 7.28121094 -5.08789062 6.55273438 C-5.09653588 4.74587691 -5.05220011 2.93893647 -5 1.1328125 C-3.4779041 -0.3892834 -2.11789918 0.00321729 0 0 Z " fill="#CBD7E5" transform="translate(35,17.8671875)"/>
<path d="M0 0 C0.62693756 0.64952385 1.25387512 1.2990477 1.89981079 1.96825409 C6.19433988 4.78272486 9.57354033 4.55735532 14.60302734 4.50793457 C15.5756571 4.51417453 16.54828686 4.5204145 17.55039024 4.52684355 C20.81248525 4.54280995 24.07383683 4.53015467 27.3359375 4.51757812 C29.67336463 4.5229976 32.01078834 4.53011927 34.34820557 4.53881836 C40.69936729 4.55707519 47.05026951 4.54997426 53.40143585 4.53730202 C59.36994003 4.52821157 65.33841194 4.53514476 71.30691695 4.5410108 C83.84846815 4.55241618 96.38990238 4.53930359 108.93143439 4.51780933 C119.69197838 4.49993834 130.45234976 4.50304246 141.21289062 4.52148438 C153.70964462 4.54289187 166.20629611 4.55131755 178.70306587 4.53903532 C185.31793488 4.53279383 191.93268498 4.53198289 198.54754639 4.54518127 C204.76594652 4.55672157 210.98402015 4.54874692 217.20238495 4.52560425 C219.48688972 4.52030748 221.7714219 4.52184738 224.05591583 4.53065491 C227.16997454 4.54155533 230.28298131 4.52791256 233.39697266 4.50793457 C234.30504354 4.51685746 235.21311443 4.52578034 236.14870262 4.53497362 C240.40439291 4.48186918 242.45185118 4.35923585 246.10018921 1.96825409 C247.04059555 0.99396832 247.04059555 0.99396832 248 0 C248.09901748 4.62640153 248.17153649 9.25218387 248.21972656 13.87939453 C248.2398188 15.45274604 248.26709799 17.02602308 248.30175781 18.59912109 C248.35038494 20.86314272 248.37299135 23.12617573 248.390625 25.390625 C248.41127014 26.09181458 248.43191528 26.79300415 248.45318604 27.51544189 C248.45458272 30.56830612 248.25696951 32.60733292 246.56945801 35.18596649 C242.67251549 37.93720208 239.09802644 37.55319162 234.43457031 37.50793457 C232.96359831 37.51729451 232.96359831 37.51729451 231.4629097 37.52684355 C228.16773891 37.54283391 224.87330164 37.53014534 221.578125 37.51757812 C219.21951871 37.52299654 216.8609158 37.53011761 214.50231934 37.53881836 C208.08918495 37.55708785 201.67630733 37.54996907 195.26316833 37.53730202 C191.25962854 37.53019867 187.2561064 37.53152904 183.25256348 37.53526306 C182.58817363 37.53587599 181.92378378 37.53648893 181.23926091 37.53712043 C179.88960996 37.53839932 178.53995902 37.53969617 177.19030809 37.5410108 C164.53147638 37.55241986 151.87276049 37.53929782 139.21394777 37.51780933 C128.34960509 37.49993801 117.48543335 37.50304203 106.62109375 37.52148438 C94.00789449 37.54288538 81.39479676 37.5513212 68.78158188 37.53903532 C67.43686678 37.53776111 66.09215166 37.53650363 64.74743652 37.53526306 C64.08579286 37.53464596 63.42414919 37.53402886 62.74245572 37.53339306 C58.07749322 37.52993782 53.41263046 37.5359672 48.74768066 37.54518127 C42.47020208 37.55671369 36.19304716 37.54876144 29.91560364 37.52560425 C27.60810382 37.52030324 25.30057689 37.52185456 22.99308777 37.53065491 C19.85016404 37.5415387 16.70828624 37.52793288 13.56542969 37.50793457 C12.64598194 37.51685746 11.72653419 37.52578034 10.7792244 37.53497362 C4.65014363 37.45900043 4.65014363 37.45900043 1.43054199 35.18596649 C-0.64354171 32.01662404 -0.49828512 29.04718273 -0.390625 25.390625 C-0.38496521 24.66381531 -0.37930542 23.93700562 -0.37347412 23.18817139 C-0.35114553 20.87476755 -0.30096048 18.5629328 -0.25 16.25 C-0.22993023 14.67840784 -0.21168029 13.10679132 -0.1953125 11.53515625 C-0.15129293 7.68950283 -0.08229375 3.84501711 0 0 Z " fill="#146CDD" transform="translate(4,201)"/>
<path d="M0 0 C1.05048523 0.00607269 1.05048523 0.00607269 2.12219238 0.01226807 C2.86054321 0.00876343 3.59889404 0.00525879 4.35961914 0.00164795 C6.80661346 -0.00717336 9.25331999 -0.00131891 11.70031738 0.00543213 C13.39660701 0.00408559 15.09289627 0.00214515 16.78918457 -0.00036621 C20.34683908 -0.00331801 23.90439327 0.00098194 27.46203613 0.01031494 C32.02882879 0.02170954 36.59538638 0.01515036 41.16217041 0.00317001 C44.66566752 -0.0040471 48.16910865 -0.00176135 51.67260742 0.0034256 C53.35677111 0.00476251 55.04093984 0.00311293 56.72509766 -0.00153351 C59.07635012 -0.00659634 61.42721861 0.0011078 63.77844238 0.01226807 C64.82892761 0.00619537 64.82892761 0.00619537 65.90063477 0 C70.72178823 0.04252797 70.72178823 0.04252797 72.95031738 2.27105713 C73.20428467 4.62408447 73.20428467 4.62408447 73.20910645 7.60699463 C73.21541077 8.72155029 73.22171509 9.83610596 73.22821045 10.98443604 C73.22416199 12.192771 73.22011353 13.40110596 73.21594238 14.64605713 C73.21785583 15.8814624 73.21976929 17.11686768 73.22174072 18.38970947 C73.22345349 21.6769712 73.21538437 24.964045 73.20422363 28.25128174 C73.20032136 30.26900243 73.20420909 32.28654914 73.21105957 34.30426025 C73.22337742 38.16827541 73.22192716 42.03203141 73.21594238 45.89605713 C73.21999084 47.10439209 73.22403931 48.31272705 73.22821045 49.55767822 C73.21875397 51.22951172 73.21875397 51.22951172 73.20910645 52.93511963 C73.20751526 53.91947998 73.20592407 54.90384033 73.20428467 55.91802979 C72.95031738 58.27105713 72.95031738 58.27105713 70.95031738 60.27105713 C68.52201677 60.46920897 66.20777719 60.5438898 63.77844238 60.52984619 C63.04009155 60.53335083 62.30174072 60.53685547 61.54101562 60.54046631 C59.0940213 60.54928762 56.64731478 60.54343317 54.20031738 60.53668213 C52.50402775 60.53802867 50.8077385 60.5399691 49.1114502 60.54248047 C45.55379569 60.54543227 41.9962415 60.54113232 38.43859863 60.53179932 C33.87180598 60.52040472 29.30524838 60.52696389 24.73846436 60.53894424 C21.23496724 60.54616135 17.73152612 60.54387561 14.22802734 60.53868866 C12.54386365 60.53735175 10.85969492 60.53900133 9.17553711 60.54364777 C6.82428464 60.5487106 4.47341615 60.54100645 2.12219238 60.52984619 C1.4218689 60.53389465 0.72154541 60.53794312 0 60.54211426 C-4.82115346 60.49958628 -4.82115346 60.49958628 -7.04968262 58.27105713 C-7.3036499 55.91802979 -7.3036499 55.91802979 -7.30847168 52.93511963 C-7.314776 51.82056396 -7.32108032 50.7060083 -7.32757568 49.55767822 C-7.32352722 48.34934326 -7.31947876 47.1410083 -7.31530762 45.89605713 C-7.31722107 44.66065186 -7.31913452 43.42524658 -7.32110596 42.15240479 C-7.32281872 38.86514306 -7.31474961 35.57806926 -7.30358887 32.29083252 C-7.29968659 30.27311183 -7.30357432 28.25556512 -7.3104248 26.237854 C-7.32274266 22.37383884 -7.3212924 18.51008285 -7.31530762 14.64605713 C-7.31935608 13.43772217 -7.32340454 12.22938721 -7.32757568 10.98443604 C-7.32127136 9.86988037 -7.31496704 8.75532471 -7.30847168 7.60699463 C-7.30688049 6.62263428 -7.30528931 5.63827393 -7.3036499 4.62408447 C-6.79570854 -0.08203313 -4.11728473 0.03631906 0 0 Z " fill="#156CDD" transform="translate(155.0496826171875,125.72894287109375)"/>
<path d="M0 0 C5.31610837 -0.10002085 10.63165079 -0.17200342 15.94848633 -0.21972656 C17.75131795 -0.23965268 19.55408658 -0.26680384 21.35668945 -0.30175781 C37.60435791 -0.60857299 51.76815016 0.99342611 64.51171875 12.2109375 C68.31668364 15.8994864 71.39836043 19.35945795 74 24 C77.18867333 23.35793682 79.58253721 22.21348239 82.375 20.5625 C87.98824151 17.40960785 92.20441569 15.90445403 98.6953125 15.95703125 C99.68805176 15.96323486 100.68079102 15.96943848 101.70361328 15.97583008 C102.4614209 15.98380615 103.21922852 15.99178223 104 16 C104.04938628 20.23582327 104.08571263 24.47149465 104.10986328 28.70751953 C104.11992963 30.14895547 104.1335838 31.59037095 104.15087891 33.03173828 C104.17510012 35.10193934 104.18647641 37.17187076 104.1953125 39.2421875 C104.20578613 40.4885498 104.21625977 41.73491211 104.22705078 43.01904297 C104 46 104 46 102 48 C100.19775391 48.25168228 100.19775391 48.25168228 97.9765625 48.25396729 C97.13528809 48.25960693 96.29401367 48.26524658 95.42724609 48.27105713 C94.50250488 48.26700867 93.57776367 48.26296021 92.625 48.25878906 C91.65256348 48.2622937 90.68012695 48.26579834 89.67822266 48.26940918 C86.4520766 48.27823802 83.22614843 48.27237324 80 48.265625 C77.76562457 48.26697132 75.53124942 48.26891157 73.296875 48.27142334 C68.60934669 48.27437617 63.92189448 48.27007184 59.234375 48.26074219 C53.21478212 48.24934761 47.19536758 48.25590623 41.17578125 48.26788712 C36.56053312 48.27510142 31.94532751 48.27281976 27.33007812 48.26763153 C25.11002583 48.26629384 22.88996972 48.26794689 20.66992188 48.27259064 C17.57150996 48.27764879 14.47339007 48.26995559 11.375 48.25878906 C10.45025879 48.26283752 9.52551758 48.26688599 8.57275391 48.27105713 C7.73147949 48.26541748 6.89020508 48.25977783 6.0234375 48.25396729 C4.92394775 48.25283621 4.92394775 48.25283621 3.80224609 48.25168228 C2 48 2 48 0 46 C-0.24050903 44.01315308 -0.24050903 44.01315308 -0.22705078 41.55029297 C-0.22689972 40.62948944 -0.22674866 39.70868591 -0.22659302 38.75997925 C-0.21627045 37.76410797 -0.20594788 36.76823669 -0.1953125 35.7421875 C-0.1924826 34.72399933 -0.18965271 33.70581116 -0.18673706 32.6567688 C-0.1755177 29.396061 -0.15040996 26.13562516 -0.125 22.875 C-0.11497247 20.66797271 -0.10584623 18.46094112 -0.09765625 16.25390625 C-0.07557268 10.83584428 -0.04207795 5.41794157 0 0 Z " fill="#156CDD" transform="translate(24,138)"/>
<path d="M0 0 C0.62693756 0.64952385 1.25387512 1.2990477 1.89981079 1.96825409 C6.19433988 4.78272486 9.57354033 4.55735532 14.60302734 4.50793457 C15.5756571 4.51417453 16.54828686 4.5204145 17.55039024 4.52684355 C20.81248525 4.54280995 24.07383683 4.53015467 27.3359375 4.51757812 C29.67336463 4.5229976 32.01078834 4.53011927 34.34820557 4.53881836 C40.69936729 4.55707519 47.05026951 4.54997426 53.40143585 4.53730202 C59.36994003 4.52821157 65.33841194 4.53514476 71.30691695 4.5410108 C83.84846815 4.55241618 96.38990238 4.53930359 108.93143439 4.51780933 C119.69197838 4.49993834 130.45234976 4.50304246 141.21289062 4.52148438 C153.70964462 4.54289187 166.20629611 4.55131755 178.70306587 4.53903532 C185.31793488 4.53279383 191.93268498 4.53198289 198.54754639 4.54518127 C204.76594652 4.55672157 210.98402015 4.54874692 217.20238495 4.52560425 C219.48688972 4.52030748 221.7714219 4.52184738 224.05591583 4.53065491 C227.16997454 4.54155533 230.28298131 4.52791256 233.39697266 4.50793457 C234.30504354 4.51685746 235.21311443 4.52578034 236.14870262 4.53497362 C240.40439291 4.48186918 242.45185118 4.35923585 246.10018921 1.96825409 C247.04059555 0.99396832 247.04059555 0.99396832 248 0 C248.05411124 2.41696872 248.09372278 4.83271787 248.125 7.25 C248.14175781 7.93191406 248.15851563 8.61382812 248.17578125 9.31640625 C248.24105992 16.04010954 248.24105992 16.04010954 246 19 C243.18295181 20.68477035 241.0988218 21.2501956 237.83328247 21.25168228 C237.00570372 21.25689778 236.17812496 21.26211327 235.32546806 21.26748681 C234.42158411 21.26302537 233.51770016 21.25856392 232.58642578 21.25396729 C231.62211199 21.25708727 230.65779819 21.26020725 229.66426277 21.26342177 C226.42455098 21.27141574 223.18502577 21.26507262 219.9453125 21.25878906 C217.62611786 21.2614983 215.30692408 21.26505885 212.98773193 21.26940918 C206.68209482 21.27854342 200.37652299 21.27498464 194.0708847 21.26865101 C187.47970907 21.26359639 180.88853913 21.26828096 174.29736328 21.27142334 C162.51795876 21.27569817 150.73858177 21.26907276 138.95918202 21.25890467 C128.27680972 21.24996905 117.59448089 21.25152106 106.91210938 21.26074219 C94.50988169 21.27144288 82.10768173 21.27543049 69.70545006 21.26951766 C63.13925508 21.26639553 56.57309004 21.2659953 50.00689697 21.27259064 C43.83456687 21.27835702 37.66231905 21.27438013 31.48999786 21.26280212 C29.22119534 21.26015175 26.95238592 21.26092702 24.68358612 21.26532745 C21.59348783 21.27076941 18.50365544 21.26396506 15.41357422 21.25396729 C14.50969027 21.25842873 13.60580631 21.26289017 12.67453194 21.26748681 C11.84695318 21.26227132 11.01937443 21.25705582 10.16671753 21.25168228 C9.45349272 21.25135758 8.74026791 21.25103287 8.00543022 21.25069833 C5.6371738 20.95464319 4.04103659 20.22066705 2 19 C-0.66718221 15.47730651 -0.22872098 11.47064591 -0.125 7.25 C-0.11597656 6.55261719 -0.10695312 5.85523438 -0.09765625 5.13671875 C-0.07419888 3.42433042 -0.03833104 1.71211996 0 0 Z " fill="#0794FE" transform="translate(4,201)"/>
<path d="M0 0 C1.05048523 0.00607269 1.05048523 0.00607269 2.12219238 0.01226807 C2.86054321 0.00876343 3.59889404 0.00525879 4.35961914 0.00164795 C6.80661346 -0.00717336 9.25331999 -0.00131891 11.70031738 0.00543213 C13.39660701 0.00408559 15.09289627 0.00214515 16.78918457 -0.00036621 C20.34683908 -0.00331801 23.90439327 0.00098194 27.46203613 0.01031494 C32.02882879 0.02170954 36.59538638 0.01515036 41.16217041 0.00317001 C44.66566752 -0.0040471 48.16910865 -0.00176135 51.67260742 0.0034256 C53.35677111 0.00476251 55.04093984 0.00311293 56.72509766 -0.00153351 C59.07635012 -0.00659634 61.42721861 0.0011078 63.77844238 0.01226807 C64.82892761 0.00619537 64.82892761 0.00619537 65.90063477 0 C70.72178823 0.04252797 70.72178823 0.04252797 72.95031738 2.27105713 C73.20910645 4.30230713 73.20910645 4.30230713 73.21594238 6.77105713 C73.21980957 8.10136963 73.21980957 8.10136963 73.22375488 9.45855713 C73.21602051 10.38668213 73.20828613 11.31480713 73.20031738 12.27105713 C73.21191895 13.66324463 73.21191895 13.66324463 73.22375488 15.08355713 C73.22117676 15.97043213 73.21859863 16.85730713 73.21594238 17.77105713 C73.21368652 18.58574463 73.21143066 19.40043213 73.20910645 20.23980713 C72.95031738 22.27105713 72.95031738 22.27105713 70.95031738 24.27105713 C68.52201677 24.46920897 66.20777719 24.5438898 63.77844238 24.52984619 C63.04009155 24.53335083 62.30174072 24.53685547 61.54101562 24.54046631 C59.0940213 24.54928762 56.64731478 24.54343317 54.20031738 24.53668213 C52.50402775 24.53802867 50.8077385 24.5399691 49.1114502 24.54248047 C45.55379569 24.54543227 41.9962415 24.54113232 38.43859863 24.53179932 C33.87180598 24.52040472 29.30524838 24.52696389 24.73846436 24.53894424 C21.23496724 24.54616135 17.73152612 24.54387561 14.22802734 24.53868866 C12.54386365 24.53735175 10.85969492 24.53900133 9.17553711 24.54364777 C6.82428464 24.5487106 4.47341615 24.54100645 2.12219238 24.52984619 C1.4218689 24.53389465 0.72154541 24.53794312 0 24.54211426 C-4.82115346 24.49958628 -4.82115346 24.49958628 -7.04968262 22.27105713 C-7.30847168 20.23980713 -7.30847168 20.23980713 -7.31530762 17.77105713 C-7.31788574 16.88418213 -7.32046387 15.99730713 -7.32312012 15.08355713 C-7.31151855 13.69136963 -7.31151855 13.69136963 -7.29968262 12.27105713 C-7.30741699 11.34293213 -7.31515137 10.41480713 -7.32312012 9.45855713 C-7.32054199 8.57168213 -7.31796387 7.68480713 -7.31530762 6.77105713 C-7.31305176 5.95636963 -7.3107959 5.14168213 -7.30847168 4.30230713 C-6.7375099 -0.17920418 -3.84566254 0.03392305 0 0 Z " fill="#0795FE" transform="translate(155.0496826171875,85.72894287109375)"/>
<path d="M0 0 C5.31610837 -0.10002085 10.63165079 -0.17200342 15.94848633 -0.21972656 C17.75131795 -0.23965268 19.55408658 -0.26680384 21.35668945 -0.30175781 C37.60435791 -0.60857299 51.76815016 0.99342611 64.51171875 12.2109375 C68.24709071 15.83202272 71.73088912 19.25958024 74 24 C73.78968797 27.37773867 72.16589257 29.31390098 70.0625 31.875 C67.52661628 35.12239066 66.01195383 37.95218467 65 42 C62.37709855 40.68854927 62.25907748 39.56534346 61.1875 36.875 C57.35340283 28.07748976 52.92824169 23.03331758 44 19 C38.3413673 17.36016375 33.21732449 16.67686486 27.34375 16.5859375 C26.55601196 16.56657135 25.76827393 16.5472052 24.95666504 16.5272522 C22.47121588 16.46806454 19.98571885 16.42131774 17.5 16.375 C15.80206452 16.33676405 14.10414727 16.29770916 12.40625 16.2578125 C8.27093494 16.16089105 4.13578475 16.08084353 0 16 C0 10.72 0 5.44 0 0 Z " fill="#0895FE" transform="translate(24,138)"/>
<path d="M0 0 C0.804375 -0.00128906 1.60875 -0.00257812 2.4375 -0.00390625 C3.283125 -0.00003906 4.12875 0.00382812 5 0.0078125 C6.2684375 0.00201172 6.2684375 0.00201172 7.5625 -0.00390625 C8.366875 -0.00261719 9.17125 -0.00132813 10 0 C10.7425 0.00112793 11.485 0.00225586 12.25 0.00341797 C14 0.1328125 14 0.1328125 15 1.1328125 C15.21789186 5.24858839 15.18579188 9.36746173 15.18530273 13.48852539 C15.18748734 15.55831514 15.20563491 17.62757043 15.22460938 19.69726562 C15.22750977 21.64342773 15.22750977 21.64342773 15.23046875 23.62890625 C15.23457764 24.82700928 15.23868652 26.0251123 15.24291992 27.25952148 C15 30.1328125 15 30.1328125 13 32.1328125 C10.29077199 32.33133352 7.70696821 32.41120727 5 32.3828125 C4.26265625 32.39054687 3.5253125 32.39828125 2.765625 32.40625 C-2.7466804 32.3861321 -2.7466804 32.3861321 -5 30.1328125 C-5.24291992 27.25952148 -5.24291992 27.25952148 -5.23046875 23.62890625 C-5.22853516 22.33146484 -5.22660156 21.03402344 -5.22460938 19.69726562 C-5.21840576 19.02058838 -5.21220215 18.34391113 -5.20581055 17.64672852 C-5.18754052 15.57490779 -5.18530095 13.50353353 -5.18554688 11.43164062 C-5.13442078 0.00779968 -5.13442078 0.00779968 0 0 Z " fill="#0795FE" transform="translate(211,17.8671875)"/>
<path d="M0 0 C0.804375 -0.00128906 1.60875 -0.00257812 2.4375 -0.00390625 C3.283125 -0.00003906 4.12875 0.00382812 5 0.0078125 C6.2684375 0.00201172 6.2684375 0.00201172 7.5625 -0.00390625 C8.366875 -0.00261719 9.17125 -0.00132813 10 0 C10.7425 0.00112793 11.485 0.00225586 12.25 0.00341797 C14 0.1328125 14 0.1328125 15 1.1328125 C15.21789186 5.24858839 15.18579188 9.36746173 15.18530273 13.48852539 C15.18748734 15.55831514 15.20563491 17.62757043 15.22460938 19.69726562 C15.22750977 21.64342773 15.22750977 21.64342773 15.23046875 23.62890625 C15.23457764 24.82700928 15.23868652 26.0251123 15.24291992 27.25952148 C15 30.1328125 15 30.1328125 13 32.1328125 C10.29077199 32.33133352 7.70696821 32.41120727 5 32.3828125 C4.26265625 32.39054687 3.5253125 32.39828125 2.765625 32.40625 C-2.7466804 32.3861321 -2.7466804 32.3861321 -5 30.1328125 C-5.24291992 27.25952148 -5.24291992 27.25952148 -5.23046875 23.62890625 C-5.22853516 22.33146484 -5.22660156 21.03402344 -5.22460938 19.69726562 C-5.21840576 19.02058838 -5.21220215 18.34391113 -5.20581055 17.64672852 C-5.18754052 15.57490779 -5.18530095 13.50353353 -5.18554688 11.43164062 C-5.13442078 0.00779968 -5.13442078 0.00779968 0 0 Z " fill="#0795FE" transform="translate(167,17.8671875)"/>
<path d="M0 0 C0.804375 -0.00128906 1.60875 -0.00257812 2.4375 -0.00390625 C3.283125 -0.00003906 4.12875 0.00382812 5 0.0078125 C6.2684375 0.00201172 6.2684375 0.00201172 7.5625 -0.00390625 C8.366875 -0.00261719 9.17125 -0.00132813 10 0 C10.7425 0.00112793 11.485 0.00225586 12.25 0.00341797 C14 0.1328125 14 0.1328125 15 1.1328125 C15.21789186 5.24858839 15.18579188 9.36746173 15.18530273 13.48852539 C15.18748734 15.55831514 15.20563491 17.62757043 15.22460938 19.69726562 C15.22750977 21.64342773 15.22750977 21.64342773 15.23046875 23.62890625 C15.23457764 24.82700928 15.23868652 26.0251123 15.24291992 27.25952148 C15 30.1328125 15 30.1328125 13 32.1328125 C10.29077199 32.33133352 7.70696821 32.41120727 5 32.3828125 C4.26265625 32.39054687 3.5253125 32.39828125 2.765625 32.40625 C-2.7466804 32.3861321 -2.7466804 32.3861321 -5 30.1328125 C-5.24291992 27.25952148 -5.24291992 27.25952148 -5.23046875 23.62890625 C-5.22853516 22.33146484 -5.22660156 21.03402344 -5.22460938 19.69726562 C-5.21840576 19.02058838 -5.21220215 18.34391113 -5.20581055 17.64672852 C-5.18754052 15.57490779 -5.18530095 13.50353353 -5.18554688 11.43164062 C-5.13442078 0.00779968 -5.13442078 0.00779968 0 0 Z " fill="#0795FE" transform="translate(123,17.8671875)"/>
<path d="M0 0 C0.804375 -0.00128906 1.60875 -0.00257812 2.4375 -0.00390625 C3.283125 -0.00003906 4.12875 0.00382812 5 0.0078125 C6.2684375 0.00201172 6.2684375 0.00201172 7.5625 -0.00390625 C8.366875 -0.00261719 9.17125 -0.00132813 10 0 C10.7425 0.00112793 11.485 0.00225586 12.25 0.00341797 C14 0.1328125 14 0.1328125 15 1.1328125 C15.21789186 5.24858839 15.18579188 9.36746173 15.18530273 13.48852539 C15.18748734 15.55831514 15.20563491 17.62757043 15.22460938 19.69726562 C15.22750977 21.64342773 15.22750977 21.64342773 15.23046875 23.62890625 C15.23457764 24.82700928 15.23868652 26.0251123 15.24291992 27.25952148 C15 30.1328125 15 30.1328125 13 32.1328125 C10.29077199 32.33133352 7.70696821 32.41120727 5 32.3828125 C4.26265625 32.39054687 3.5253125 32.39828125 2.765625 32.40625 C-2.7466804 32.3861321 -2.7466804 32.3861321 -5 30.1328125 C-5.24291992 27.25952148 -5.24291992 27.25952148 -5.23046875 23.62890625 C-5.22853516 22.33146484 -5.22660156 21.03402344 -5.22460938 19.69726562 C-5.21840576 19.02058838 -5.21220215 18.34391113 -5.20581055 17.64672852 C-5.18754052 15.57490779 -5.18530095 13.50353353 -5.18554688 11.43164062 C-5.13442078 0.00779968 -5.13442078 0.00779968 0 0 Z " fill="#0795FE" transform="translate(79,17.8671875)"/>
<path d="M0 0 C0.804375 -0.00128906 1.60875 -0.00257812 2.4375 -0.00390625 C3.283125 -0.00003906 4.12875 0.00382812 5 0.0078125 C6.2684375 0.00201172 6.2684375 0.00201172 7.5625 -0.00390625 C8.366875 -0.00261719 9.17125 -0.00132813 10 0 C10.7425 0.00112793 11.485 0.00225586 12.25 0.00341797 C14 0.1328125 14 0.1328125 15 1.1328125 C15.21789186 5.24858839 15.18579188 9.36746173 15.18530273 13.48852539 C15.18748734 15.55831514 15.20563491 17.62757043 15.22460938 19.69726562 C15.22750977 21.64342773 15.22750977 21.64342773 15.23046875 23.62890625 C15.23457764 24.82700928 15.23868652 26.0251123 15.24291992 27.25952148 C15 30.1328125 15 30.1328125 13 32.1328125 C10.29077199 32.33133352 7.70696821 32.41120727 5 32.3828125 C4.26265625 32.39054687 3.5253125 32.39828125 2.765625 32.40625 C-2.7466804 32.3861321 -2.7466804 32.3861321 -5 30.1328125 C-5.24291992 27.25952148 -5.24291992 27.25952148 -5.23046875 23.62890625 C-5.22853516 22.33146484 -5.22660156 21.03402344 -5.22460938 19.69726562 C-5.21840576 19.02058838 -5.21220215 18.34391113 -5.20581055 17.64672852 C-5.18754052 15.57490779 -5.18530095 13.50353353 -5.18554688 11.43164062 C-5.13442078 0.00779968 -5.13442078 0.00779968 0 0 Z " fill="#0795FE" transform="translate(35,17.8671875)"/>
<path d="M0 0 C7.78706907 0.89253782 7.78706907 0.89253782 10.9765625 4.08203125 C11.5540625 3.79328125 12.1315625 3.50453125 12.7265625 3.20703125 C13.8403125 2.65015625 13.8403125 2.65015625 14.9765625 2.08203125 C15.5746875 1.71078125 16.1728125 1.33953125 16.7890625 0.95703125 C19.9353722 -0.30149263 22.62750815 -0.16604685 25.9765625 0.08203125 C27.9765625 2.08203125 27.9765625 2.08203125 28.1640625 4.45703125 C26.45041182 8.24510118 23.82179136 8.58522833 20.078125 10.03515625 C17.6980276 10.97684858 17.6980276 10.97684858 16.4140625 13.83203125 C16.1975 14.94578125 16.1975 14.94578125 15.9765625 16.08203125 C17.3996875 16.02015625 17.3996875 16.02015625 18.8515625 15.95703125 C21.9765625 16.08203125 21.9765625 16.08203125 23.9765625 18.08203125 C23.42100694 22.63758681 23.42100694 22.63758681 21.9765625 24.08203125 C18.67139316 24.33239099 15.35260209 24.26725077 12.0390625 24.26953125 C11.10642578 24.28177734 10.17378906 24.29402344 9.21289062 24.30664062 C8.32150391 24.30857422 7.43011719 24.31050781 6.51171875 24.3125 C5.6906665 24.31660889 4.86961426 24.32071777 4.02368164 24.32495117 C1.9765625 24.08203125 1.9765625 24.08203125 -0.0234375 22.08203125 C0.53211806 17.52647569 0.53211806 17.52647569 1.9765625 16.08203125 C3.97614614 16.04122342 5.97701504 16.03948769 7.9765625 16.08203125 C7.03087149 13.10001853 7.03087149 13.10001853 4.9765625 10.08203125 C3.02636677 9.13819682 3.02636677 9.13819682 0.8515625 8.51953125 C-1.2734375 7.86328125 -1.2734375 7.86328125 -3.0234375 7.08203125 C-4.1484375 4.51953125 -4.1484375 4.51953125 -4.0234375 2.08203125 C-2.0234375 0.08203125 -2.0234375 0.08203125 0 0 Z " fill="#0C96FE" transform="translate(40.0234375,101.91796875)"/>
<path d="M0 0 C4.08998175 1.80720124 6.66247347 4.19069751 9 8 C9.62819266 13.0255413 9.03320735 15.95572354 6 20 C3.24705395 23.21177039 0.96958591 23.86947882 -3.25 24.4375 C-8.1843364 23.86182742 -10.79803186 21.71753928 -14 18 C-15.23534045 14.29397865 -15.45528745 11.90246386 -15 8 C-10.91704021 1.64314568 -7.65816344 -0.51919752 0 0 Z " fill="#196EDD" transform="translate(95,102)"/>
<path d="M0 0 C5.28 0 10.56 0 16 0 C16.1953125 10.7421875 16.1953125 10.7421875 16 14 C14 16 14 16 10.7421875 16.1953125 C7.16145833 16.13020833 3.58072917 16.06510417 0 16 C0 10.72 0 5.44 0 0 Z " fill="#0795FE" transform="translate(212,170)"/>
<path d="M0 0 C5.28 0 10.56 0 16 0 C16 5.28 16 10.56 16 16 C5.2578125 16.1953125 5.2578125 16.1953125 2 16 C0 14 0 14 -0.1953125 10.7421875 C-0.13020833 7.16145833 -0.06510417 3.58072917 0 0 Z " fill="#0795FE" transform="translate(148,170)"/>
<path d="M0 0 C10.7421875 -0.1953125 10.7421875 -0.1953125 14 0 C16 2 16 2 16.1953125 5.2578125 C16.13020833 8.83854167 16.06510417 12.41927083 16 16 C10.72 16 5.44 16 0 16 C0 10.72 0 5.44 0 0 Z " fill="#0795FE" transform="translate(212,126)"/>
<path d="M0 0 C3.58072917 0.06510417 7.16145833 0.13020833 10.7421875 0.1953125 C10.7421875 5.4753125 10.7421875 10.7553125 10.7421875 16.1953125 C5.4621875 16.1953125 0.1821875 16.1953125 -5.2578125 16.1953125 C-5.453125 5.453125 -5.453125 5.453125 -5.2578125 2.1953125 C-3.2578125 0.1953125 -3.2578125 0.1953125 0 0 Z " fill="#0795FE" transform="translate(153.2578125,125.8046875)"/>
<path d="M0 0 C3.96 0 7.92 0 12 0 C12 5.28 12 10.56 12 16 C8.04 16 4.08 16 0 16 C0 10.72 0 5.44 0 0 Z " fill="#0795FF" transform="translate(192,170)"/>
<path d="M0 0 C3.96 0 7.92 0 12 0 C12 5.28 12 10.56 12 16 C8.04 16 4.08 16 0 16 C0 10.72 0 5.44 0 0 Z " fill="#0795FF" transform="translate(172,170)"/>
<path d="M0 0 C5.28 0 10.56 0 16 0 C16 3.96 16 7.92 16 12 C10.72 12 5.44 12 0 12 C0 8.04 0 4.08 0 0 Z " fill="#0795FF" transform="translate(212,150)"/>
<path d="M0 0 C5.28 0 10.56 0 16 0 C16 3.96 16 7.92 16 12 C10.72 12 5.44 12 0 12 C0 8.04 0 4.08 0 0 Z " fill="#0795FF" transform="translate(148,150)"/>
<path d="M0 0 C3.96 0 7.92 0 12 0 C12 5.28 12 10.56 12 16 C8.04 16 4.08 16 0 16 C0 10.72 0 5.44 0 0 Z " fill="#0795FF" transform="translate(192,126)"/>
<path d="M0 0 C3.96 0 7.92 0 12 0 C12 5.28 12 10.56 12 16 C8.04 16 4.08 16 0 16 C0 10.72 0 5.44 0 0 Z " fill="#0795FF" transform="translate(172,126)"/>
<path d="M0 0 C3.96 0 7.92 0 12 0 C12 3.96 12 7.92 12 12 C8.04 12 4.08 12 0 12 C0 8.04 0 4.08 0 0 Z " fill="#0795FF" transform="translate(192,150)"/>
<path d="M0 0 C3.96 0 7.92 0 12 0 C12 3.96 12 7.92 12 12 C8.04 12 4.08 12 0 12 C0 8.04 0 4.08 0 0 Z " fill="#0795FF" transform="translate(172,150)"/>
</svg>
